{"title":"22 Jump Street - 2014 (No Cinavia) 1080p","uid":11437806,"size":2396012463,"categoryP":"video","categoryS":"hd___movies","magnet":"?xt=urn:btih:a624e4ca2fcf46fd578fbe2769e350b815b305a9&amp;dn=22+Jump+Street+-+2014+%28No+Cinavia%29+1080p&amp;tr=udp%3A%2F%2Ftracker.openbittorrent.com%3A80&amp;tr=udp%3A%2F%2Fopen.demonii.com%3A1337&amp;tr=udp%3A%2F%2Ftracker.coppersurfer.tk%3A6969&amp;tr=udp%3A%2F%2Fexodus.desync.com%3A6969","seeders":4,"leechers":1,"uploader":"AlienMethod","files":-1,"time":1415768749,"description":"x264/mp4\nCinavia Removed/CinExHD\n2-Channel AAC@128kbps (audio 1)\n6-Channel AC3@448kbps (audio 2)\nEnglish Sub File Incl.\n\n&quot;After making their way through high school (twice), big changes are in store for officers Schmidt and Jenko when they go deep undercover at a local college.&quot;\n\n\nGeneral\nComplete name : F:Torrents22 Jump Street - 2014 (NoCinavia) 1080p22.Jump.Street.2014(NoCinavia)1080p.mp4\nFormat : MPEG-4\nFormat profile : Base Media\nCodec ID : isom\nFile size : 2.23 GiB\nDuration : 1h 51mn\nOverall bit rate mode : Variable\nOverall bit rate : 2 854 Kbps\nEncoded date : UTC 2014-11-12 03:07:30\nTagged date : UTC 2014-11-12 03:07:30\nWriting application : My MP4Box GUI 0.6.0.6 \n\nVideo\nID : 1\nFormat : AVC\nFormat/Info : Advanced Video Codec\nFormat profile : &lt;a class=&quot;__cf_email__&quot; href=&quot;/cdn-cgi/l/email-protection&quot; data-cfemail=&quot;90d8f9f7f8d0dca4bea1&quot;&gt;[email&amp;#160;protected]&lt;/a&gt;&lt;script cf-hash='f9e31' type=&quot;text/javascript&quot;&gt;\n/* &lt;![CDATA[ */!function(){try{var t=&quot;currentScript&quot;in document?document.currentScript:function(){for(var t=document.getElementsByTagName(&quot;script&quot;),e=t.length;e--;)if(t[e].getAttribute(&quot;cf-hash&quot;))return t[e]}();if(t&amp;&amp;t.previousSibling){var e,r,n,i,c=t.previousSibling,a=c.getAttribute(&quot;data-cfemail&quot;);if(a){for(e=&quot;&quot;,r=parseInt(a.substr(0,2),16),n=2;a.length-n;n+=2)i=parseInt(a.substr(n,2),16)^r,e+=String.fromCharCode(i);e=document.createTextNode(e),c.parentNode.replaceChild(e,c)}}}catch(u){}}();/* ]]&gt; */&lt;/script&gt;\nFormat settings, CABAC : Yes\nFormat settings, ReFrames : 4 frames\nCodec ID : avc1\nCodec ID/Info : Advanced Video Coding\nDuration : 1h 51mn\nBit rate : 2 274 Kbps\nMaximum bit rate : 14.4 Mbps\nWidth : 1 920 pixels\nHeight : 800 pixels\nDisplay aspect ratio : 2.40:1\nFrame rate mode : Constant\nFrame rate : 23.976 fps\nColor space : YUV\nChroma subsampling : 4:2:0\nBit depth : 8 bits\nScan type : Progressive\nBits/(Pixel*Frame) : 0.062\nStream size : 1.78 GiB (80%)\nTitle : 22.Jump.Street.2014(NoCinavia)1080p_track1.h264\nWriting library : x264 core 142 r2479 dd79a61\nEncoded date : UTC 2014-11-12 03:07:30\nTagged date : UTC 2014-11-12 03:07:48\n\nAudio #1\nID : 2\nFormat : AAC\nFormat/Info : Advanced Audio Codec\nFormat profile : LC\nCodec ID : 40\nDuration : 1h 51mn\nBit rate mode : Variable\nBit rate : 128 Kbps\nMaximum bit rate : 137 Kbps\nChannel(s) : 2 channels\nChannel positions : Front: L R\nSampling rate : 48.0 KHz\nCompression mode : Lossy\nStream size : 102 MiB (4%)\nTitle : 22jumpaudio.aac.m4a\nEncoded date : UTC 2014-11-12 03:07:42\nTagged date : UTC 2014-11-12 03:07:48\n\nAudio #2\nID : 3\nFormat : AC-3\nFormat/Info : Audio Coding 3\nMode extension : CM (complete main)\nFormat settings, Endianness : Big\nCodec ID : ac-3\nDuration : 1h 51mn\nBit rate mode : Constant\nBit rate : 448 Kbps\nChannel(s) : 6 channels\nChannel positions : Front: L C R, Side: L R, LFE\nSampling rate : 48.0 KHz\nBit depth : 16 bits\nCompression mode : Lossy\nStream size : 359 MiB (16%)\nTitle : 22jumpaudio.ac3.ac3\nEncoded date : UTC 2014-11-12 03:07:46\nTagged date : UTC 2014-11-12 03:07:48\n\nm/ AM m/","torrent":{"xt":"urn:btih:a624e4ca2fcf46fd578fbe2769e350b815b305a9","amp;dn":"22+Jump+Street+-+2014+%28No+Cinavia%29+1080p","amp;tr":["udp%3A%2F%2Ftracker.openbittorrent.com%3A80","udp%3A%2F%2Fopen.demonii.com%3A1337","udp%3A%2F%2Ftracker.coppersurfer.tk%3A6969","udp%3A%2F%2Fexodus.desync.com%3A6969"],"infoHash":"a624e4ca2fcf46fd578fbe2769e350b815b305a9","infoHashBuffer":{"type":"Buffer","data":[166,36,228,202,47,207,70,253,87,143,190,39,105,227,80,184,21,179,5,169]},"announce":[],"urlList":[]}}